<svg width="14" height="14" viewBox="0 0 14 14" fill="none" xmlns="http://www.w3.org/2000/svg">
<path d="M0.933225 5.99267C-0.0397748 4.22552 0.832064 2.21733 2.52574 1.12142C3.21562 0.675029 4.1339 0.843904 4.61983 1.50653L5.62492 2.87711C6.06833 3.48176 6.13629 4.28362 5.80097 4.95427L5.52781 5.50057C5.44874 5.65871 5.43624 5.84165 5.51712 5.99887C5.66449 6.28532 5.9783 6.79294 6.58283 7.39747C7.18736 8.002 7.69499 8.31581 7.98143 8.46318C8.13865 8.54407 8.32159 8.53156 8.47974 8.45249L9.02604 8.17934C9.69668 7.84402 10.4985 7.91198 11.1032 8.35538L12.4738 9.36047C13.1364 9.8464 13.3053 10.7647 12.8589 11.4546C11.763 13.1482 9.75479 14.0201 7.98764 13.0471C6.83433 12.4121 5.44741 11.4475 3.99011 9.9902C2.5328 8.53289 1.56824 7.14598 0.933225 5.99267Z" fill="#F1214F"/>
</svg>
